HIERARCHY
ROOT root
{
	OFFSET 0.000000 0.000000 0.000000
	CHANNELS 6 Xposition Yposition Zposition Zrotation Yrotation Xrotation
	JOINT lhip
	{
		OFFSET 0.058581 -0.082280 -0.017664
		CHANNELS 3 Zrotation Yrotation Xrotation
		JOINT lknee
		{
			OFFSET 0.043451 -0.386469 0.008037
			CHANNELS 3 Zrotation Yrotation Xrotation
			JOINT lankle
			{
				OFFSET -0.014790 -0.426874 -0.037428
				CHANNELS 3 Zrotation Yrotation Xrotation
				JOINT ltoe
				{
					OFFSET 0.041054 -0.060286 0.122042
					CHANNELS 3 Zrotation Yrotation Xrotation
					End Site
					{
						OFFSET 0.000000 0.000000 0.000000
					}
				}
			}
		}
	}
	JOINT rhip
	{
		OFFSET -0.060310 -0.090513 -0.013543
		CHANNELS 3 Zrotation Yrotation Xrotation
		JOINT rknee
		{
			OFFSET -0.043257 -0.383688 -0.004843
			CHANNELS 3 Zrotation Yrotation Xrotation
			JOINT rankle
			{
				OFFSET 0.019056 -0.420046 -0.034562
				CHANNELS 3 Zrotation Yrotation Xrotation
				JOINT rtoe
				{
					OFFSET -0.034840 -0.062106 0.130323
					CHANNELS 3 Zrotation Yrotation Xrotation
					End Site
					{
						OFFSET 0.000000 0.000000 0.000000
					}
				}
			}
		}
	}
	JOINT lowerback
	{
		OFFSET 0.004439 0.124404 -0.038385
		CHANNELS 3 Zrotation Yrotation Xrotation
		JOINT upperback
		{
			OFFSET 0.004488 0.137956 0.026820
			CHANNELS 3 Zrotation Yrotation Xrotation
			JOINT chest
			{
				OFFSET -0.002265 0.056032 0.002855
				CHANNELS 3 Zrotation Yrotation Xrotation
				JOINT lowerneck
				{
					OFFSET -0.013390 0.211636 -0.033468
					CHANNELS 3 Zrotation Yrotation Xrotation
					JOINT upperneck
					{
						OFFSET 0.010113 0.088937 0.050410
						CHANNELS 3 Zrotation Yrotation Xrotation
						End Site
						{
							OFFSET 0.000000 0.000000 0.000000
						}
					}
				}
				JOINT lclavicle
				{
					OFFSET 0.071702 0.114000 -0.018898
					CHANNELS 3 Zrotation Yrotation Xrotation
					JOINT lshoulder
					{
						OFFSET 0.122921 0.045205 -0.019046
						CHANNELS 3 Zrotation Yrotation Xrotation
						JOINT lelbow
						{
							OFFSET 0.255332 -0.015649 -0.022946
							CHANNELS 3 Zrotation Yrotation Xrotation
							JOINT lwrist
							{
								OFFSET 0.265709 0.012698 -0.007375
								CHANNELS 3 Zrotation Yrotation Xrotation
								End Site
								{
									OFFSET 0.000000 0.000000 0.000000
								}
							}
						}
					}
				}
				JOINT rclavicle
				{
					OFFSET -0.082954 0.112472 -0.023707
					CHANNELS 3 Zrotation Yrotation Xrotation
					JOINT rshoulder
					{
						OFFSET -0.113228 0.046853 -0.008472
						CHANNELS 3 Zrotation Yrotation Xrotation
						JOINT relbow
						{
							OFFSET -0.260127 -0.014369 -0.031269
							CHANNELS 3 Zrotation Yrotation Xrotation
							JOINT rwrist
							{
								OFFSET -0.269108 0.006794 -0.006027
								CHANNELS 3 Zrotation Yrotation Xrotation
								End Site
								{
									OFFSET 0.000000 0.000000 0.000000
								}
							}
						}
					}
				}
			}
		}
	}
}
MOTION
Frames: 17
Frame Time: 0.033333
-0.109648 0.695670 1.013016 49.921233 -1.787302 89.299596 3.896380 3.073902 -11.375789 -8.667112 3.937443 18.251340 2.239199 16.703752 -19.413654 0.000000 -0.000000 0.000000 -11.281366 -11.802068 -16.171521 0.403036 -11.468520 34.864884 8.822984 -15.130586 -19.054991 0.000000 -0.000000 0.000000 8.990569 2.542508 20.473538 -2.204229 7.653396 -5.999592 -1.645301 2.907010 6.932258 -6.856694 6.436788 1.536888 -14.412570 8.488089 28.750171 -19.198541 15.122596 -6.493206 -47.316813 -0.464843 14.325833 -23.849110 -38.121183 41.653143 -0.898595 -14.409656 -6.031679 13.146682 -4.690300 -5.945722 22.682268 10.079494 15.769698 29.570966 49.310453 40.639983 5.227659 12.801043 5.985806 
-0.114718 0.700496 1.008354 50.224272 -1.881566 89.434963 4.041825 2.953835 -13.062418 -9.041617 4.351997 20.181769 2.528656 16.566299 -19.986689 0.000000 -0.000000 0.000000 -11.625374 -12.027122 -17.789824 0.404608 -11.819680 37.059651 8.694746 -14.972942 -19.747740 0.000000 -0.000000 0.000000 9.499955 2.496313 22.372079 -2.102192 8.120837 -5.847322 -1.478045 3.266619 7.085420 -6.962856 5.975994 1.678919 -14.636191 7.982900 28.481466 -19.210633 15.022072 -6.292631 -47.550071 0.424044 14.608887 -24.816295 -39.342437 42.585675 -0.415842 -14.425115 -7.191468 13.063926 -3.545576 -5.488493 21.621442 11.006804 14.833837 28.905318 49.823982 39.384814 4.340680 12.954909 6.368709 
-0.120111 0.705244 1.002991 50.523881 -2.002833 89.726385 4.211307 2.850204 -14.997668 -9.417035 4.938461 22.211514 2.818441 16.345183 -20.556327 0.000000 -0.000000 0.000000 -11.936243 -12.313876 -19.649187 0.330770 -12.183313 39.352591 8.528496 -14.820133 -20.417876 0.000000 -0.000000 0.000000 9.856918 2.489826 24.246718 -1.944353 8.509170 -5.794524 -1.275937 3.631343 7.206249 -6.981644 5.503084 1.858508 -14.754443 7.440998 28.384696 -19.184792 14.973510 -6.058885 -47.738194 1.294008 14.888224 -25.856026 -40.499556 43.714543 -0.102185 -14.439950 -8.102823 13.049008 -2.487485 -5.168470 20.678988 11.942355 13.878884 28.035824 50.071407 38.152080 4.146876 12.991855 6.937723 
-0.125572 0.709797 0.997445 50.815693 -2.111645 89.965977 4.399896 2.769167 -16.922172 -9.764212 5.497347 24.284045 3.044974 16.113447 -21.090810 0.000000 -0.000000 0.000000 -12.234208 -12.566513 -21.394019 0.230282 -12.568596 41.535306 8.366022 -14.651577 -21.075716 0.000000 -0.000000 0.000000 10.269203 2.432805 26.207299 -1.811799 8.891467 -5.628160 -1.109052 3.992347 7.328299 -6.983357 4.921997 2.009088 -14.832902 6.707972 28.223609 -19.178810 14.926971 -5.909705 -47.865414 1.965375 15.079538 -26.866309 -41.435531 44.913166 0.170817 -14.354804 -8.774013 13.056358 -1.453544 -4.915555 19.888109 12.823029 12.825058 26.733410 50.011208 36.286501 3.827155 12.967842 7.307396 
-0.131058 0.714193 0.991519 51.142931 -2.212882 90.285303 4.539682 2.667343 -18.938061 -10.001926 5.978937 26.327588 3.316822 15.946580 -21.615327 0.000000 -0.000000 0.000000 -12.537490 -12.742629 -23.229611 0.121753 -13.011825 43.741127 8.226625 -14.587985 -21.661267 0.000000 -0.000000 0.000000 10.607744 2.316127 28.166025 -1.650401 9.245477 -5.567177 -0.892603 4.308150 7.479468 -6.962174 4.347807 2.160301 -14.894710 6.022034 28.130246 -19.148564 14.915565 -5.706797 -48.023760 2.616397 15.090997 -27.630476 -42.238122 45.808673 0.364368 -14.301018 -9.307802 13.074272 -0.400351 -4.601611 19.099325 13.710103 11.737480 25.196161 49.678439 34.277668 3.476003 13.067616 8.113181 
-0.136319 0.718480 0.985165 51.507467 -2.331995 90.679383 4.693155 2.617121 -20.957966 -10.268982 6.554064 28.212820 3.611202 15.670986 -22.067974 0.000000 -0.000000 0.000000 -12.876054 -13.029367 -25.099754 0.024095 -13.459306 45.900141 8.051098 -14.496565 -22.213224 0.000000 -0.000000 0.000000 10.943879 2.171137 30.033084 -1.467685 9.537493 -5.432442 -0.676630 4.591517 7.608416 -7.019801 3.720860 2.351316 -14.952835 5.316611 27.947639 -19.143276 14.870304 -5.395087 -48.224975 3.312810 15.018728 -27.870196 -43.124104 46.174317 0.455026 -14.337161 -10.089081 13.133617 0.636982 -4.159595 18.234738 14.567310 10.543050 23.457588 49.374724 32.134156 3.117733 13.086530 8.869901 
-0.140829 0.722480 0.978988 51.938619 -2.359768 90.461355 4.752168 3.039083 -22.340563 -11.120011 5.800746 30.062343 4.142688 16.294950 -22.139587 0.000000 -0.000000 0.000000 -13.035343 -13.937208 -26.219570 0.323817 -12.993757 47.796198 7.397293 -14.801196 -22.616171 0.000000 -0.000000 0.000000 11.666286 1.673142 32.705774 -1.724835 10.062655 -5.636801 -0.241089 4.653243 8.787998 -7.366758 2.291247 -0.887949 -15.175521 5.787846 30.871169 -18.270513 13.903272 -7.522782 -49.797956 6.164793 16.128336 -27.181047 -44.424577 48.504750 1.541078 -13.239957 -14.113156 12.363729 3.019241 -6.554979 17.904830 13.142388 10.780042 23.012983 49.142489 32.315505 -0.427864 14.565653 7.039516 
-0.145546 0.726296 0.971892 52.241929 -2.431948 90.958998 4.872179 3.307089 -24.545553 -11.316471 6.304652 32.034911 4.399306 15.799823 -22.481248 0.000000 -0.000000 0.000000 -13.206931 -14.350094 -28.245970 0.133769 -13.280514 49.999572 7.157692 -14.644965 -23.105486 0.000000 -0.000000 0.000000 11.980986 1.404763 34.616129 -1.561021 10.328387 -5.629852 -0.005726 4.992145 8.897169 -7.491971 1.730074 -0.672549 -15.197815 5.167764 30.558257 -18.029069 13.882605 -7.148407 -50.312488 7.016427 15.881554 -27.466696 -45.211985 49.480688 1.960275 -13.002151 -15.266617 12.256324 4.079736 -5.961776 16.965082 13.824529 9.429766 21.536694 48.854454 30.947324 -0.894464 14.688831 7.394934 
-0.150347 0.730293 0.964366 52.612926 -2.471953 91.501376 5.011624 3.487404 -26.901705 -11.450923 6.869827 34.146988 4.592104 15.305501 -22.868282 0.000000 -0.000000 0.000000 -13.338683 -14.820954 -30.310092 -0.016858 -13.562353 52.166116 6.904298 -14.570009 -23.605582 0.000000 -0.000000 0.000000 12.315950 1.020553 36.506802 -1.433506 10.566596 -5.591548 0.198289 5.281349 8.951549 -7.631976 1.168089 -0.572998 -15.249876 4.666558 30.221336 -17.981747 13.916137 -6.900096 -50.528608 7.843967 15.659792 -27.880179 -45.863765 50.294323 2.353518 -13.000067 -16.067721 12.192319 5.163075 -5.477508 15.806148 14.693251 8.015822 20.118302 48.062979 29.221588 -1.305337 14.903891 8.090458 
-0.154680 0.733997 0.956757 52.911049 -2.535304 91.894014 5.089259 3.628862 -29.047691 -11.470791 7.430296 36.244333 4.719521 14.869545 -23.288910 0.000000 -0.000000 0.000000 -13.524212 -15.248650 -32.151024 -0.291158 -13.867591 54.289430 6.688443 -14.357725 -24.066090 0.000000 -0.000000 0.000000 12.658110 0.571852 38.552894 -1.385071 10.804575 -5.491979 0.380067 5.562584 8.944820 -7.823794 0.569225 -0.296745 -15.321021 4.186989 29.568977 -17.980682 13.863759 -6.641864 -50.689440 8.669668 15.423486 -28.296403 -46.472543 51.015181 2.359749 -13.135349 -16.711746 12.010274 6.340565 -4.994568 14.535000 15.557134 6.539077 18.868167 46.820140 27.539747 -1.718329 15.141839 9.112135 
-0.158949 0.737434 0.948605 53.132059 -2.579151 92.512049 5.204862 3.786162 -31.378315 -11.462572 8.006749 38.241527 4.966788 14.523642 -23.678751 0.000000 -0.000000 0.000000 -13.616658 -15.606662 -34.273391 -0.506531 -14.112541 56.410712 6.494871 -14.257956 -24.496018 0.000000 -0.000000 0.000000 12.978474 0.217695 40.387899 -1.370747 11.084572 -5.653530 0.547637 5.821988 8.980869 -7.998311 -0.001193 0.065823 -15.330503 3.895942 29.365230 -17.939407 13.759184 -6.316237 -50.780021 9.391192 15.245824 -28.833208 -46.685867 51.858664 2.404470 -13.257185 -17.134734 11.877082 7.522095 -4.411186 13.188523 16.382583 5.043087 17.704892 45.120832 26.010947 -2.031703 15.337971 10.338857 
-0.163181 0.740516 0.940196 53.397354 -2.673966 93.155224 5.303023 3.908821 -33.713617 -11.460673 8.591745 40.222544 5.183944 14.182406 -24.082700 0.000000 -0.000000 0.000000 -13.745792 -16.061721 -36.379527 -0.647235 -14.334132 58.494766 6.309586 -14.187728 -24.985132 0.000000 -0.000000 0.000000 13.254913 -0.082363 42.168045 -1.349842 11.353128 -5.877085 0.703765 6.095348 8.984379 -8.142927 -0.458256 0.484734 -15.326671 3.453544 29.234363 -17.822854 13.435170 -5.987879 -50.820433 10.030799 15.381277 -29.441357 -46.580966 52.890842 2.521288 -13.532550 -17.496622 11.771019 8.640239 -3.856541 11.764638 17.033366 3.545293 16.883517 43.277527 24.550966 -2.412374 15.622007 11.317917 
-0.167031 0.743471 0.931910 53.642123 -2.856251 93.588732 5.354139 4.070302 -35.745820 -11.543353 9.197760 42.124375 5.313685 13.816321 -24.457707 0.000000 -0.000000 0.000000 -14.043803 -16.570244 -38.168513 -0.813307 -14.564858 60.517834 6.152216 -13.974135 -25.505959 0.000000 -0.000000 0.000000 13.566964 -0.375516 44.099905 -1.388621 11.627468 -5.958644 0.822472 6.400248 8.983191 -8.280003 -0.894025 0.798728 -15.281312 2.872548 28.915073 -17.737458 12.947481 -5.725103 -50.967145 10.643508 15.523862 -29.928461 -46.453116 53.596576 2.571403 -13.783649 -17.656511 11.620181 9.697066 -3.370964 10.261877 17.295756 2.068289 16.151560 41.763700 23.250752 -2.715444 15.878310 12.591540 
-0.170659 0.746401 0.923573 53.829133 -3.052149 94.007382 5.345757 4.239025 -37.722910 -11.546313 9.767318 44.014758 5.518781 13.537608 -24.870497 0.000000 -0.000000 0.000000 -14.326578 -17.103619 -39.942172 -0.969402 -14.722888 62.522679 6.036311 -13.765831 -25.991935 0.000000 -0.000000 0.000000 13.899872 -0.709687 46.039599 -1.518481 11.923963 -6.072559 0.905505 6.683870 9.022006 -8.443887 -1.329005 0.977048 -15.233456 2.539408 28.602757 -17.777079 12.727520 -5.574014 -51.080458 11.308265 15.458352 -30.512044 -46.420656 54.455582 2.323429 -13.959328 -17.650729 11.350260 10.612428 -2.969142 8.802103 17.488953 0.686488 15.573326 40.417442 22.326117 -2.486453 16.055093 14.029291 
-0.174088 0.749020 0.915161 53.957358 -3.291012 94.463936 5.227483 4.376810 -39.681297 -11.423273 10.259107 45.818176 5.740771 13.353491 -25.223671 0.000000 -0.000000 0.000000 -14.572464 -17.655212 -41.769485 -1.073132 -14.753410 64.461219 5.880709 -13.654685 -26.453457 0.000000 -0.000000 0.000000 14.198333 -1.156951 47.923420 -1.728639 12.200986 -6.135536 0.955761 6.896757 9.011768 -8.928120 -1.909711 1.283983 -15.107280 2.519010 27.982244 -18.050037 12.637473 -5.546086 -50.965204 12.140367 15.326274 -31.197627 -46.470266 55.184078 2.405452 -14.014666 -17.634682 10.994583 11.572168 -2.493072 7.269478 17.667069 -0.680813 15.111266 39.238216 21.185986 -2.391660 16.195861 15.224855 
-0.177722 0.751336 0.906609 54.059035 -3.552310 95.037079 5.187675 4.447669 -41.736084 -11.292498 10.836222 47.570322 5.892309 13.177407 -25.528905 0.000000 -0.000000 0.000000 -14.785815 -18.108267 -43.717354 -1.203148 -14.795141 66.362872 5.731719 -13.563534 -26.912244 0.000000 -0.000000 0.000000 14.411055 -1.446701 49.704377 -1.911379 12.484077 -6.266565 1.046130 7.118353 9.010581 -9.268888 -2.500309 1.586555 -14.931029 2.469482 27.425257 -18.240545 12.549152 -5.431077 -51.072693 12.875751 15.149996 -31.430069 -46.362364 55.517799 2.667936 -14.069856 -17.695946 10.731150 12.352384 -2.044518 5.607040 17.708313 -2.127891 14.839197 38.207538 20.271542 -2.790411 16.537384 16.318763 
-0.181218 0.753721 0.898045 54.174244 -3.808418 95.651332 5.170411 4.399927 -43.852812 -11.111138 11.411611 49.330293 6.035094 13.094781 -25.808261 0.000000 -0.000000 0.000000 -15.004812 -18.545258 -45.682366 -1.322086 -14.862192 68.232515 5.629800 -13.500509 -27.302285 0.000000 -0.000000 0.000000 14.626370 -1.748233 51.427350 -2.101818 12.743847 -6.488736 1.120122 7.292922 9.072993 -9.497881 -3.092949 1.797447 -14.704264 2.362506 26.992678 -18.379553 12.564886 -5.321323 -51.233115 13.591170 14.963641 -31.656077 -46.242207 56.056125 2.583110 -14.231552 -17.588385 10.417759 13.057023 -1.620327 3.947794 17.725784 -3.543427 14.629684 37.228720 19.514646 -3.110186 16.873018 17.291161 
